<?xml version="1.0" encoding="UTF-8" standalone="no"?>
<!-- Generator: Adobe Illustrator 18.0.0, SVG Export Plug-In . SVG Version: 6.00 Build 0)  -->

<svg
   xmlns:dc="http://purl.org/dc/elements/1.1/"
   xmlns:cc="http://creativecommons.org/ns#"
   xmlns:rdf="http://www.w3.org/1999/02/22-rdf-syntax-ns#"
   xmlns:svg="http://www.w3.org/2000/svg"
   xmlns="http://www.w3.org/2000/svg"
   xmlns:sodipodi="http://sodipodi.sourceforge.net/DTD/sodipodi-0.dtd"
   xmlns:inkscape="http://www.inkscape.org/namespaces/inkscape"
   version="1.1"
   id="Capa_1"
   x="0px"
   y="0px"
   viewBox="0 0 59.019 59.019"
   style="enable-background:new 0 0 59.019 59.019;"
   xml:space="preserve"
   sodipodi:docname="booking.svg"
   inkscape:version="0.92.3 (2405546, 2018-03-11)"><metadata
   id="metadata45"><rdf:RDF><cc:Work
       rdf:about=""><dc:format>image/svg+xml</dc:format><dc:type
         rdf:resource="http://purl.org/dc/dcmitype/StillImage" /></cc:Work></rdf:RDF></metadata><defs
   id="defs43" /><sodipodi:namedview
   pagecolor="#ffffff"
   bordercolor="#666666"
   borderopacity="1"
   objecttolerance="10"
   gridtolerance="10"
   guidetolerance="10"
   inkscape:pageopacity="0"
   inkscape:pageshadow="2"
   inkscape:window-width="730"
   inkscape:window-height="480"
   id="namedview41"
   showgrid="false"
   inkscape:zoom="3.9987122"
   inkscape:cx="29.509501"
   inkscape:cy="29.509501"
   inkscape:window-x="0"
   inkscape:window-y="0"
   inkscape:window-maximized="0"
   inkscape:current-layer="Capa_1" />
<g
   id="g8"
   style="fill:#ffffff">
	<path
   d="M58.963,44.119c-0.116-0.367-0.434-0.634-0.814-0.688l-7.777-1.089l-3.472-6.78c-0.342-0.668-1.438-0.668-1.779,0   l-3.472,6.78l-7.777,1.089c-0.381,0.054-0.698,0.32-0.814,0.688s-0.012,0.768,0.269,1.031l5.605,5.267l-1.321,7.427   c-0.066,0.373,0.084,0.752,0.388,0.978c0.305,0.227,0.711,0.262,1.049,0.089l6.964-3.528l6.964,3.528   c0.143,0.073,0.298,0.108,0.452,0.108c0.211,0,0.421-0.066,0.597-0.197c0.304-0.226,0.454-0.604,0.388-0.978l-1.321-7.427   l5.605-5.267C58.974,44.887,59.079,44.486,58.963,44.119z M51.325,49.33c-0.246,0.231-0.359,0.571-0.3,0.903l1.064,5.987   l-5.628-2.852c-0.143-0.072-0.297-0.108-0.452-0.108s-0.31,0.036-0.452,0.108l-5.628,2.852l1.064-5.987   c0.06-0.332-0.054-0.672-0.3-0.903l-4.479-4.207l6.225-0.872c0.322-0.045,0.603-0.244,0.751-0.534l2.818-5.504l2.818,5.504   c0.148,0.29,0.429,0.489,0.751,0.534l6.225,0.872L51.325,49.33z"
   id="path2"
   style="fill:#ffffff" />
	<path
   d="M36.01,32h9V21h-9h-2h-7h-2h-7h-2h-9v9v2v7v2v9h9h2h9v-9h9V32z M36.01,23h7v7h-7V23z M27.01,23h7v7h-7V23z M18.01,23h7v7   h-7V23z M25.01,39h-7v-7h7V39z M9.01,23h7v7h-7V23z M9.01,32h7v7h-7V32z M16.01,48h-7v-7h7V48z M25.01,48h-7v-7h7V48z M34.01,39h-7   v-7h7V39z"
   id="path4"
   style="fill:#ffffff" />
	<path
   d="M26.01,55h-24V16h48v17c0,0.553,0.447,1,1,1s1-0.447,1-1V15V5c0-0.553-0.447-1-1-1h-5V1c0-0.553-0.447-1-1-1h-7   c-0.553,0-1,0.447-1,1v3h-22V1c0-0.553-0.447-1-1-1h-7c-0.553,0-1,0.447-1,1v3h-5c-0.553,0-1,0.447-1,1v10v41c0,0.553,0.447,1,1,1   h25c0.553,0,1-0.447,1-1S26.562,55,26.01,55z M39.01,2h5v3v3h-5V5V2z M8.01,2h5v3v3h-5V5V2z M2.01,6h4v3c0,0.553,0.447,1,1,1h7   c0.553,0,1-0.447,1-1V6h22v3c0,0.553,0.447,1,1,1h7c0.553,0,1-0.447,1-1V6h4v8h-48V6z"
   id="path6"
   style="fill:#ffffff" />
</g>
<g
   id="g10">
</g>
<g
   id="g12">
</g>
<g
   id="g14">
</g>
<g
   id="g16">
</g>
<g
   id="g18">
</g>
<g
   id="g20">
</g>
<g
   id="g22">
</g>
<g
   id="g24">
</g>
<g
   id="g26">
</g>
<g
   id="g28">
</g>
<g
   id="g30">
</g>
<g
   id="g32">
</g>
<g
   id="g34">
</g>
<g
   id="g36">
</g>
<g
   id="g38">
</g>
</svg>