<?xml version="1.0" encoding="UTF-8" standalone="no"?>
<!-- Generator: Adobe Illustrator 22.0.0, SVG Export Plug-In . SVG Version: 6.00 Build 0)  -->

<svg
   xmlns:dc="http://purl.org/dc/elements/1.1/"
   xmlns:cc="http://creativecommons.org/ns#"
   xmlns:rdf="http://www.w3.org/1999/02/22-rdf-syntax-ns#"
   xmlns:svg="http://www.w3.org/2000/svg"
   xmlns="http://www.w3.org/2000/svg"
   xmlns:sodipodi="http://sodipodi.sourceforge.net/DTD/sodipodi-0.dtd"
   xmlns:inkscape="http://www.inkscape.org/namespaces/inkscape"
   version="1.1"
   x="0px"
   y="0px"
   viewBox="0 0 60 60"
   style="enable-background:new 0 0 60 60;"
   xml:space="preserve"
   width="512"
   height="512"
   id="svg53"
   sodipodi:docname="001-blockchain.svg"
   inkscape:version="0.92.3 (2405546, 2018-03-11)"><metadata
   id="metadata59"><rdf:RDF><cc:Work
       rdf:about=""><dc:format>image/svg+xml</dc:format><dc:type
         rdf:resource="http://purl.org/dc/dcmitype/StillImage" /></cc:Work></rdf:RDF></metadata><defs
   id="defs57" /><sodipodi:namedview
   pagecolor="#ffffff"
   bordercolor="#666666"
   borderopacity="1"
   objecttolerance="10"
   gridtolerance="10"
   guidetolerance="10"
   inkscape:pageopacity="0"
   inkscape:pageshadow="2"
   inkscape:window-width="730"
   inkscape:window-height="480"
   id="namedview55"
   showgrid="false"
   inkscape:zoom="0.4609375"
   inkscape:cx="256"
   inkscape:cy="256"
   inkscape:window-x="0"
   inkscape:window-y="0"
   inkscape:window-maximized="0"
   inkscape:current-layer="svg53" />
<g
   id="_x32_2-Blockchain"
   style="fill:#ffffff">
	<path
   d="M40,41H20c-0.552,0-1-0.448-1-1V20c0-0.552,0.448-1,1-1h20c0.552,0,1,0.448,1,1v20C41,40.552,40.552,41,40,41z M21,39h18   V21H21V39z"
   id="path2"
   style="fill:#ffffff" />
	<path
   d="M9,10H5c-0.552,0-1-0.448-1-1V5c0-0.552,0.448-1,1-1h4c0.552,0,1,0.448,1,1v4C10,9.552,9.552,10,9,10z M6,8h2V6H6V8z"
   id="path4"
   style="fill:#ffffff" />
	<path
   d="M13,14H1c-0.552,0-1-0.448-1-1V1c0-0.552,0.448-1,1-1h12c0.552,0,1,0.448,1,1v12C14,13.552,13.552,14,13,14z M2,12h10V2H2   V12z"
   id="path6"
   style="fill:#ffffff" />
	<path
   d="M55,10h-4c-0.552,0-1-0.448-1-1V5c0-0.552,0.448-1,1-1h4c0.552,0,1,0.448,1,1v4C56,9.552,55.552,10,55,10z M52,8h2V6h-2V8z   "
   id="path8"
   style="fill:#ffffff" />
	<path
   d="M59,14H47c-0.552,0-1-0.448-1-1V1c0-0.552,0.448-1,1-1h12c0.552,0,1,0.448,1,1v12C60,13.552,59.552,14,59,14z M48,12h10V2   H48V12z"
   id="path10"
   style="fill:#ffffff" />
	<path
   d="M55,56h-4c-0.552,0-1-0.448-1-1v-4c0-0.552,0.448-1,1-1h4c0.552,0,1,0.448,1,1v4C56,55.552,55.552,56,55,56z M52,54h2v-2   h-2V54z"
   id="path12"
   style="fill:#ffffff" />
	<path
   d="M59,60H47c-0.552,0-1-0.448-1-1V47c0-0.552,0.448-1,1-1h12c0.552,0,1,0.448,1,1v12C60,59.552,59.552,60,59,60z M48,58h10   V48H48V58z"
   id="path14"
   style="fill:#ffffff" />
	<path
   d="M9,56H5c-0.552,0-1-0.448-1-1v-4c0-0.552,0.448-1,1-1h4c0.552,0,1,0.448,1,1v4C10,55.552,9.552,56,9,56z M6,54h2v-2H6V54z"
   id="path16"
   style="fill:#ffffff" />
	<path
   d="M13,60H1c-0.552,0-1-0.448-1-1V47c0-0.552,0.448-1,1-1h12c0.552,0,1,0.448,1,1v12C14,59.552,13.552,60,13,60z M2,58h10V48   H2V58z"
   id="path18"
   style="fill:#ffffff" />
	<path
   d="M36,37H24c-0.552,0-1-0.448-1-1V24c0-0.552,0.448-1,1-1h12c0.552,0,1,0.448,1,1v12C37,36.552,36.552,37,36,37z M25,35h10   V25H25V35z"
   id="path20"
   style="fill:#ffffff" />
	<path
   d="M7,31c-0.552,0-1-0.448-1-1V13c0-0.552,0.448-1,1-1s1,0.448,1,1v17C8,30.552,7.552,31,7,31z"
   id="path22"
   style="fill:#ffffff" />
	<path
   d="M20,31H7c-0.552,0-1-0.448-1-1s0.448-1,1-1h13c0.552,0,1,0.448,1,1S20.552,31,20,31z"
   id="path24"
   style="fill:#ffffff" />
	<path
   d="M36,21c-0.552,0-1-0.448-1-1V7c0-0.552,0.448-1,1-1s1,0.448,1,1v13C37,20.552,36.552,21,36,21z"
   id="path26"
   style="fill:#ffffff" />
	<path
   d="M47,8H36c-0.552,0-1-0.448-1-1s0.448-1,1-1h11c0.552,0,1,0.448,1,1S47.552,8,47,8z"
   id="path28"
   style="fill:#ffffff" />
	<path
   d="M53,37H40c-0.552,0-1-0.448-1-1s0.448-1,1-1h13c0.552,0,1,0.448,1,1S53.552,37,53,37z"
   id="path30"
   style="fill:#ffffff" />
	<path
   d="M53,48c-0.552,0-1-0.448-1-1V36c0-0.552,0.448-1,1-1s1,0.448,1,1v11C54,47.552,53.552,48,53,48z"
   id="path32"
   style="fill:#ffffff" />
	<path
   d="M24,55c-0.552,0-1-0.448-1-1V40c0-0.552,0.448-1,1-1s1,0.448,1,1v14C25,54.552,24.552,55,24,55z"
   id="path34"
   style="fill:#ffffff" />
	<path
   d="M24,55H13c-0.552,0-1-0.448-1-1s0.448-1,1-1h11c0.552,0,1,0.448,1,1S24.552,55,24,55z"
   id="path36"
   style="fill:#ffffff" />
	<path
   d="M22,15c-2.206,0-4-1.794-4-4s1.794-4,4-4s4,1.794,4,4S24.206,15,22,15z M22,9c-1.103,0-2,0.897-2,2s0.897,2,2,2   s2-0.897,2-2S23.103,9,22,9z"
   id="path38"
   style="fill:#ffffff" />
	<path
   d="M56,32c-2.206,0-4-1.794-4-4s1.794-4,4-4s4,1.794,4,4S58.206,32,56,32z M56,26c-1.103,0-2,0.897-2,2s0.897,2,2,2   s2-0.897,2-2S57.103,26,56,26z"
   id="path40"
   style="fill:#ffffff" />
	<path
   d="M53,29h-5c-1.654,0-3-1.346-3-3v-1c0-1.103-0.897-2-2-2h-3c-0.552,0-1-0.448-1-1s0.448-1,1-1h3c2.206,0,4,1.794,4,4v1   c0,0.551,0.448,1,1,1h5c0.552,0,1,0.448,1,1S53.552,29,53,29z"
   id="path42"
   style="fill:#ffffff" />
	<path
   d="M31,21c-0.552,0-1-0.448-1-1v-6c0-1.103-0.897-2-2-2h-3c-0.552,0-1-0.448-1-1s0.448-1,1-1h3c2.206,0,4,1.794,4,4v6   C32,20.552,31.552,21,31,21z"
   id="path44"
   style="fill:#ffffff" />
	<path
   d="M32,60c-2.206,0-4-1.794-4-4s1.794-4,4-4s4,1.794,4,4S34.206,60,32,60z M32,54c-1.103,0-2,0.897-2,2s0.897,2,2,2   s2-0.897,2-2S33.103,54,32,54z"
   id="path46"
   style="fill:#ffffff" />
	<path
   d="M32,54c-0.552,0-1-0.448-1-1v-5c0-1.654,1.346-3,3-3h1c1.103,0,2-0.897,2-2v-3c0-0.552,0.448-1,1-1s1,0.448,1,1v3   c0,2.206-1.794,4-4,4h-1c-0.552,0-1,0.449-1,1v5C33,53.552,32.552,54,32,54z"
   id="path48"
   style="fill:#ffffff" />
	<path
   d="M32,33h-4c-0.552,0-1-0.448-1-1v-4c0-0.552,0.448-1,1-1h4c0.552,0,1,0.448,1,1s-0.448,1-1,1h-3v2h3c0.552,0,1,0.448,1,1   S32.552,33,32,33z"
   id="path50"
   style="fill:#ffffff" />
</g>

</svg>