<?xml version="1.0" encoding="UTF-8" standalone="no"?>
<!-- Generator: Adobe Illustrator 19.0.0, SVG Export Plug-In . SVG Version: 6.00 Build 0)  -->

<svg
   xmlns:dc="http://purl.org/dc/elements/1.1/"
   xmlns:cc="http://creativecommons.org/ns#"
   xmlns:rdf="http://www.w3.org/1999/02/22-rdf-syntax-ns#"
   xmlns:svg="http://www.w3.org/2000/svg"
   xmlns="http://www.w3.org/2000/svg"
   xmlns:sodipodi="http://sodipodi.sourceforge.net/DTD/sodipodi-0.dtd"
   xmlns:inkscape="http://www.inkscape.org/namespaces/inkscape"
   version="1.1"
   id="Capa_1"
   x="0px"
   y="0px"
   viewBox="0 0 480 480"
   style="enable-background:new 0 0 480 480;"
   xml:space="preserve"
   sodipodi:docname="license.svg"
   inkscape:version="0.92.3 (2405546, 2018-03-11)"><metadata
   id="metadata139"><rdf:RDF><cc:Work
       rdf:about=""><dc:format>image/svg+xml</dc:format><dc:type
         rdf:resource="http://purl.org/dc/dcmitype/StillImage" /></cc:Work></rdf:RDF></metadata><defs
   id="defs137" /><sodipodi:namedview
   pagecolor="#ffffff"
   bordercolor="#666666"
   borderopacity="1"
   objecttolerance="10"
   gridtolerance="10"
   guidetolerance="10"
   inkscape:pageopacity="0"
   inkscape:pageshadow="2"
   inkscape:window-width="730"
   inkscape:window-height="480"
   id="namedview135"
   showgrid="false"
   inkscape:zoom="0.49166667"
   inkscape:cx="240"
   inkscape:cy="240"
   inkscape:window-x="0"
   inkscape:window-y="0"
   inkscape:window-maximized="0"
   inkscape:current-layer="Capa_1" />
<g
   id="g6"
   style="fill:#ffffff">
	<g
   id="g4"
   style="fill:#ffffff">
		<path
   d="M360,4H8c-4.418,0-8,3.582-8,8v456c0,4.418,3.582,8,8,8h352c4.418,0,8-3.582,8-8V12C368,7.582,364.418,4,360,4z M352,460    H16V20h336V460z"
   id="path2"
   style="fill:#ffffff" />
	</g>
</g>
<g
   id="g12"
   style="fill:#ffffff">
	<g
   id="g10"
   style="fill:#ffffff">
		<path
   d="M224,84h-80c-4.418,0-8,3.582-8,8s3.582,8,8,8h80c4.418,0,8-3.582,8-8S228.418,84,224,84z"
   id="path8"
   style="fill:#ffffff" />
	</g>
</g>
<g
   id="g18"
   style="fill:#ffffff">
	<g
   id="g16"
   style="fill:#ffffff">
		<path
   d="M120,180H72c-4.418,0-8,3.582-8,8s3.582,8,8,8h48c4.418,0,8-3.582,8-8S124.418,180,120,180z"
   id="path14"
   style="fill:#ffffff" />
	</g>
</g>
<g
   id="g24"
   style="fill:#ffffff">
	<g
   id="g22"
   style="fill:#ffffff">
		<path
   d="M328,180H152c-4.418,0-8,3.582-8,8s3.582,8,8,8h176c4.418,0,8-3.582,8-8S332.418,180,328,180z"
   id="path20"
   style="fill:#ffffff" />
	</g>
</g>
<g
   id="g30"
   style="fill:#ffffff">
	<g
   id="g28"
   style="fill:#ffffff">
		<path
   d="M328,212H40c-4.418,0-8,3.582-8,8s3.582,8,8,8h288c4.418,0,8-3.582,8-8S332.418,212,328,212z"
   id="path26"
   style="fill:#ffffff" />
	</g>
</g>
<g
   id="g36"
   style="fill:#ffffff">
	<g
   id="g34"
   style="fill:#ffffff">
		<path
   d="M248,244H40c-4.418,0-8,3.582-8,8s3.582,8,8,8h208c4.418,0,8-3.582,8-8S252.418,244,248,244z"
   id="path32"
   style="fill:#ffffff" />
	</g>
</g>
<g
   id="g42"
   style="fill:#ffffff">
	<g
   id="g40"
   style="fill:#ffffff">
		<path
   d="M328,244h-48c-4.418,0-8,3.582-8,8s3.582,8,8,8h48c4.418,0,8-3.582,8-8S332.418,244,328,244z"
   id="path38"
   style="fill:#ffffff" />
	</g>
</g>
<g
   id="g48"
   style="fill:#ffffff">
	<g
   id="g46"
   style="fill:#ffffff">
		<path
   d="M328,276H184c-4.418,0-8,3.582-8,8s3.582,8,8,8h144c4.418,0,8-3.582,8-8S332.418,276,328,276z"
   id="path44"
   style="fill:#ffffff" />
	</g>
</g>
<g
   id="g54"
   style="fill:#ffffff">
	<g
   id="g52"
   style="fill:#ffffff">
		<path
   d="M152,276H40c-4.418,0-8,3.582-8,8s3.582,8,8,8h112c4.418,0,8-3.582,8-8S156.418,276,152,276z"
   id="path50"
   style="fill:#ffffff" />
	</g>
</g>
<g
   id="g60"
   style="fill:#ffffff">
	<g
   id="g58"
   style="fill:#ffffff">
		<path
   d="M328,308h-32c-4.418,0-8,3.582-8,8s3.582,8,8,8h32c4.418,0,8-3.582,8-8S332.418,308,328,308z"
   id="path56"
   style="fill:#ffffff" />
	</g>
</g>
<g
   id="g66"
   style="fill:#ffffff">
	<g
   id="g64"
   style="fill:#ffffff">
		<path
   d="M80,308H40c-4.418,0-8,3.582-8,8s3.582,8,8,8h40c4.418,0,8-3.582,8-8S84.418,308,80,308z"
   id="path62"
   style="fill:#ffffff" />
	</g>
</g>
<g
   id="g72"
   style="fill:#ffffff">
	<g
   id="g70"
   style="fill:#ffffff">
		<path
   d="M264,308H112c-4.418,0-8,3.582-8,8s3.582,8,8,8h152c4.418,0,8-3.582,8-8S268.418,308,264,308z"
   id="path68"
   style="fill:#ffffff" />
	</g>
</g>
<g
   id="g78"
   style="fill:#ffffff">
	<g
   id="g76"
   style="fill:#ffffff">
		<path
   d="M320,404H208c-4.418,0-8,3.582-8,8s3.582,8,8,8h112c4.418,0,8-3.582,8-8S324.418,404,320,404z"
   id="path74"
   style="fill:#ffffff" />
	</g>
</g>
<g
   id="g84"
   style="fill:#ffffff">
	<g
   id="g82"
   style="fill:#ffffff">
		<path
   d="M256,52H112c-4.418,0-8,3.582-8,8s3.582,8,8,8h144c4.418,0,8-3.582,8-8S260.418,52,256,52z"
   id="path80"
   style="fill:#ffffff" />
	</g>
</g>
<g
   id="g90"
   style="fill:#ffffff">
	<g
   id="g88"
   style="fill:#ffffff">
		<path
   d="M472,76h-24c0-17.673-14.327-32-32-32c-17.673,0-32,14.327-32,32v288c-0.065,22.626,8.929,44.337,24.976,60.288    l1.368,1.368c3.124,3.123,8.188,3.123,11.312,0l1.368-1.368C439.071,408.337,448.065,386.626,448,364V92h16v72h16V84    C480,79.582,476.418,76,472,76z M416,408.288c-8.625-10.312-14.03-22.93-15.544-36.288h31.088    C430.03,385.358,424.625,397.976,416,408.288z M432,356h-32V92h32V356z M400,76c0-8.837,7.163-16,16-16s16,7.163,16,16H400z"
   id="path86"
   style="fill:#ffffff" />
	</g>
</g>
<g
   id="g96"
   style="fill:#ffffff">
	<g
   id="g94"
   style="fill:#ffffff">
		<path
   d="M328,132h-96c-4.418,0-8,3.582-8,8s3.582,8,8,8h96c4.418,0,8-3.582,8-8S332.418,132,328,132z"
   id="path92"
   style="fill:#ffffff" />
	</g>
</g>
<g
   id="g102"
   style="fill:#ffffff">
	<g
   id="g100"
   style="fill:#ffffff">
		<path
   d="M216,340H40c-4.418,0-8,3.582-8,8s3.582,8,8,8h176c4.418,0,8-3.582,8-8S220.418,340,216,340z"
   id="path98"
   style="fill:#ffffff" />
	</g>
</g>
<g
   id="g104">
</g>
<g
   id="g106">
</g>
<g
   id="g108">
</g>
<g
   id="g110">
</g>
<g
   id="g112">
</g>
<g
   id="g114">
</g>
<g
   id="g116">
</g>
<g
   id="g118">
</g>
<g
   id="g120">
</g>
<g
   id="g122">
</g>
<g
   id="g124">
</g>
<g
   id="g126">
</g>
<g
   id="g128">
</g>
<g
   id="g130">
</g>
<g
   id="g132">
</g>
</svg>