<?xml version="1.0" encoding="UTF-8" standalone="no"?>
<!-- Generator: Adobe Illustrator 19.0.0, SVG Export Plug-In . SVG Version: 6.00 Build 0)  -->

<svg
   xmlns:dc="http://purl.org/dc/elements/1.1/"
   xmlns:cc="http://creativecommons.org/ns#"
   xmlns:rdf="http://www.w3.org/1999/02/22-rdf-syntax-ns#"
   xmlns:svg="http://www.w3.org/2000/svg"
   xmlns="http://www.w3.org/2000/svg"
   xmlns:sodipodi="http://sodipodi.sourceforge.net/DTD/sodipodi-0.dtd"
   xmlns:inkscape="http://www.inkscape.org/namespaces/inkscape"
   version="1.1"
   id="Capa_1"
   x="0px"
   y="0px"
   viewBox="0 0 512 512"
   style="enable-background:new 0 0 512 512;"
   xml:space="preserve"
   sodipodi:docname="prediction.svg"
   inkscape:version="0.92.3 (2405546, 2018-03-11)"><metadata
   id="metadata211"><rdf:RDF><cc:Work
       rdf:about=""><dc:format>image/svg+xml</dc:format><dc:type
         rdf:resource="http://purl.org/dc/dcmitype/StillImage" /></cc:Work></rdf:RDF></metadata><defs
   id="defs209" /><sodipodi:namedview
   pagecolor="#ffffff"
   bordercolor="#666666"
   borderopacity="1"
   objecttolerance="10"
   gridtolerance="10"
   guidetolerance="10"
   inkscape:pageopacity="0"
   inkscape:pageshadow="2"
   inkscape:window-width="730"
   inkscape:window-height="480"
   id="namedview207"
   showgrid="false"
   inkscape:zoom="0.4609375"
   inkscape:cx="256"
   inkscape:cy="256"
   inkscape:window-x="0"
   inkscape:window-y="0"
   inkscape:window-maximized="0"
   inkscape:current-layer="Capa_1" />
<g
   id="g6"
   style="fill:#ffffff">
	<g
   id="g4"
   style="fill:#ffffff">
		<path
   d="M462.8,247.776C417.736,175.28,340.424,132,256,132S94.264,175.28,49.2,247.768c-1.6,2.592-1.6,5.872,0,8.456    C94.264,328.72,171.576,372,256,372s161.736-43.28,206.8-115.768C464.4,253.64,464.4,250.36,462.8,247.776z M256,356    c-77.2,0-148.048-38.784-190.512-104C107.944,186.784,178.8,148,256,148s148.048,38.784,190.512,104    C404.056,317.216,333.2,356,256,356z"
   id="path2"
   style="fill:#ffffff" />
	</g>
</g>
<g
   id="g12"
   style="fill:#ffffff">
	<g
   id="g10"
   style="fill:#ffffff">
		<path
   d="M256,164c-48.52,0-88,39.48-88,88c0,48.52,39.48,88,88,88s88-39.48,88-88S304.52,164,256,164z M256,324    c-39.704,0-72-32.296-72-72s32.296-72,72-72c39.704,0,72,32.296,72,72C328,291.704,295.704,324,256,324z"
   id="path8"
   style="fill:#ffffff" />
	</g>
</g>
<g
   id="g18"
   style="fill:#ffffff">
	<g
   id="g16"
   style="fill:#ffffff">
		<path
   d="M256,220c-17.648,0-32,14.352-32,32s14.352,32,32,32s32-14.352,32-32S273.648,220,256,220z M256,268    c-8.824,0-16-7.176-16-16c0-8.824,7.176-16,16-16c8.824,0,16,7.176,16,16C272,260.824,264.824,268,256,268z"
   id="path14"
   style="fill:#ffffff" />
	</g>
</g>
<g
   id="g24"
   style="fill:#ffffff">
	<g
   id="g22"
   style="fill:#ffffff">
		<path
   d="M504,108H392c-4.424,0-8,3.576-8,8s3.576,8,8,8h112c4.424,0,8-3.576,8-8S508.424,108,504,108z"
   id="path20"
   style="fill:#ffffff" />
	</g>
</g>
<g
   id="g30"
   style="fill:#ffffff">
	<g
   id="g28"
   style="fill:#ffffff">
		<path
   d="M424,76h-32c-4.424,0-8,3.576-8,8s3.576,8,8,8h32c4.424,0,8-3.576,8-8S428.424,76,424,76z"
   id="path26"
   style="fill:#ffffff" />
	</g>
</g>
<g
   id="g36"
   style="fill:#ffffff">
	<g
   id="g34"
   style="fill:#ffffff">
		<path
   d="M504,44h-24c-4.424,0-8,3.576-8,8s3.576,8,8,8h24c4.424,0,8-3.576,8-8S508.424,44,504,44z"
   id="path32"
   style="fill:#ffffff" />
	</g>
</g>
<g
   id="g42"
   style="fill:#ffffff">
	<g
   id="g40"
   style="fill:#ffffff">
		<path
   d="M504,76h-48c-4.424,0-8,3.576-8,8s3.576,8,8,8h48c4.424,0,8-3.576,8-8S508.424,76,504,76z"
   id="path38"
   style="fill:#ffffff" />
	</g>
</g>
<g
   id="g48"
   style="fill:#ffffff">
	<g
   id="g46"
   style="fill:#ffffff">
		<path
   d="M424,12h-32c-4.424,0-8,3.576-8,8s3.576,8,8,8h32c4.424,0,8-3.576,8-8S428.424,12,424,12z"
   id="path44"
   style="fill:#ffffff" />
	</g>
</g>
<g
   id="g54"
   style="fill:#ffffff">
	<g
   id="g52"
   style="fill:#ffffff">
		<path
   d="M504,12h-48c-4.424,0-8,3.576-8,8s3.576,8,8,8h48c4.424,0,8-3.576,8-8S508.424,12,504,12z"
   id="path50"
   style="fill:#ffffff" />
	</g>
</g>
<g
   id="g60"
   style="fill:#ffffff">
	<g
   id="g58"
   style="fill:#ffffff">
		<path
   d="M448,44h-56c-4.424,0-8,3.576-8,8s3.576,8,8,8h56c4.424,0,8-3.576,8-8S452.424,44,448,44z"
   id="path56"
   style="fill:#ffffff" />
	</g>
</g>
<g
   id="g66"
   style="fill:#ffffff">
	<g
   id="g64"
   style="fill:#ffffff">
		<path
   d="M336,244h-56c-4.424,0-8,3.576-8,8s3.576,8,8,8h56c4.424,0,8-3.576,8-8S340.424,244,336,244z"
   id="path62"
   style="fill:#ffffff" />
	</g>
</g>
<g
   id="g72"
   style="fill:#ffffff">
	<g
   id="g70"
   style="fill:#ffffff">
		<path
   d="M256,308c-4.424,0-8,3.576-8,8v16c0,4.424,3.576,8,8,8s8-3.576,8-8v-16C264,311.576,260.424,308,256,308z"
   id="path68"
   style="fill:#ffffff" />
	</g>
</g>
<g
   id="g78"
   style="fill:#ffffff">
	<g
   id="g76"
   style="fill:#ffffff">
		<path
   d="M256,164c-4.424,0-8,3.576-8,8v16c0,4.424,3.576,8,8,8s8-3.576,8-8v-16C264,167.576,260.424,164,256,164z"
   id="path74"
   style="fill:#ffffff" />
	</g>
</g>
<g
   id="g84"
   style="fill:#ffffff">
	<g
   id="g82"
   style="fill:#ffffff">
		<path
   d="M318.224,302.912l-11.32-11.32c-3.128-3.128-8.184-3.128-11.312,0c-3.128,3.128-3.128,8.184,0,11.312l11.32,11.32    c1.56,1.56,3.608,2.344,5.656,2.344c2.048,0,4.096-0.776,5.656-2.344C321.352,311.096,321.352,306.04,318.224,302.912z"
   id="path80"
   style="fill:#ffffff" />
	</g>
</g>
<g
   id="g90"
   style="fill:#ffffff">
	<g
   id="g88"
   style="fill:#ffffff">
		<path
   d="M216.408,201.096l-11.312-11.312c-3.128-3.128-8.184-3.128-11.312,0s-3.128,8.184,0,11.312l11.312,11.312    c1.56,1.56,3.608,2.344,5.656,2.344c2.048,0,4.088-0.784,5.656-2.344C219.536,209.28,219.536,204.224,216.408,201.096z"
   id="path86"
   style="fill:#ffffff" />
	</g>
</g>
<g
   id="g96"
   style="fill:#ffffff">
	<g
   id="g94"
   style="fill:#ffffff">
		<path
   d="M232,244h-55.992c-4.424,0-8,3.576-8,8s3.576,8,8,8H232c4.424,0,8-3.576,8-8S236.424,244,232,244z"
   id="path92"
   style="fill:#ffffff" />
	</g>
</g>
<g
   id="g102"
   style="fill:#ffffff">
	<g
   id="g100"
   style="fill:#ffffff">
		<path
   d="M397.656,110.352c-3.128-3.128-8.184-3.128-11.312,0L295.6,201.096c-3.128,3.128-3.128,8.184,0,11.312    c1.56,1.56,3.608,2.344,5.656,2.344c2.048,0,4.096-0.784,5.656-2.344l90.744-90.744    C400.784,118.536,400.784,113.48,397.656,110.352z"
   id="path98"
   style="fill:#ffffff" />
	</g>
</g>
<g
   id="g108"
   style="fill:#ffffff">
	<g
   id="g106"
   style="fill:#ffffff">
		<path
   d="M216.408,291.584c-3.128-3.128-8.184-3.128-11.312,0l-90.768,90.76c-3.128,3.128-3.128,8.184,0,11.312    c1.56,1.56,3.608,2.344,5.656,2.344s4.096-0.784,5.656-2.344l90.768-90.76C219.536,299.768,219.536,294.712,216.408,291.584z"
   id="path104"
   style="fill:#ffffff" />
	</g>
</g>
<g
   id="g114"
   style="fill:#ffffff">
	<g
   id="g112"
   style="fill:#ffffff">
		<path
   d="M119.984,380H8c-4.424,0-8,3.576-8,8s3.576,8,8,8h111.984c4.424,0,8-3.576,8-8S124.408,380,119.984,380z"
   id="path110"
   style="fill:#ffffff" />
	</g>
</g>
<g
   id="g120"
   style="fill:#ffffff">
	<g
   id="g118"
   style="fill:#ffffff">
		<path
   d="M120,412H8c-4.424,0-8,3.576-8,8v72c0,4.424,3.576,8,8,8h112c4.424,0,8-3.576,8-8v-72C128,415.576,124.424,412,120,412z     M112,484H16v-56h96V484z"
   id="path116"
   style="fill:#ffffff" />
	</g>
</g>
<g
   id="g126"
   style="fill:#ffffff">
	<g
   id="g124"
   style="fill:#ffffff">
		<path
   d="M96,460H32c-4.424,0-8,3.576-8,8s3.576,8,8,8h64c4.424,0,8-3.576,8-8S100.424,460,96,460z"
   id="path122"
   style="fill:#ffffff" />
	</g>
</g>
<g
   id="g132"
   style="fill:#ffffff">
	<g
   id="g130"
   style="fill:#ffffff">
		<path
   d="M32,460c-4.424,0-8,3.576-8,8v24c0,4.424,3.576,8,8,8s8-3.576,8-8v-24C40,463.576,36.424,460,32,460z"
   id="path128"
   style="fill:#ffffff" />
	</g>
</g>
<g
   id="g138"
   style="fill:#ffffff">
	<g
   id="g136"
   style="fill:#ffffff">
		<path
   d="M96,460c-4.424,0-8,3.576-8,8v24c0,4.424,3.576,8,8,8s8-3.576,8-8v-24C104,463.576,100.424,460,96,460z"
   id="path134"
   style="fill:#ffffff" />
	</g>
</g>
<g
   id="g144"
   style="fill:#ffffff">
	<g
   id="g142"
   style="fill:#ffffff">
		<path
   d="M168,20H96c-4.424,0-8,3.576-8,8v72c0,4.424,3.576,8,8,8h72c4.424,0,8-3.576,8-8V28C176,23.576,172.424,20,168,20z     M160,92h-56V36h56V92z"
   id="path140"
   style="fill:#ffffff" />
	</g>
</g>
<g
   id="g150"
   style="fill:#ffffff">
	<g
   id="g148"
   style="fill:#ffffff">
		<path
   d="M72,124H40c-4.424,0-8,3.576-8,8v32c0,4.424,3.576,8,8,8h32c4.424,0,8-3.576,8-8v-32C80,127.576,76.424,124,72,124z     M64,156H48v-16h16V156z"
   id="path146"
   style="fill:#ffffff" />
	</g>
</g>
<g
   id="g156"
   style="fill:#ffffff">
	<g
   id="g154"
   style="fill:#ffffff">
		<path
   d="M248,52h-24c-4.424,0-8,3.576-8,8v24c0,4.424,3.576,8,8,8h24c4.424,0,8-3.576,8-8V60C256,55.576,252.424,52,248,52z     M240,76h-8v-8h8V76z"
   id="path152"
   style="fill:#ffffff" />
	</g>
</g>
<g
   id="g162"
   style="fill:#ffffff">
	<g
   id="g160"
   style="fill:#ffffff">
		<path
   d="M416,396h-72c-4.424,0-8,3.576-8,8v72c0,4.424,3.576,8,8,8h72c4.424,0,8-3.576,8-8v-72C424,399.576,420.424,396,416,396z     M408,468h-56v-56h56V468z"
   id="path158"
   style="fill:#ffffff" />
	</g>
</g>
<g
   id="g168"
   style="fill:#ffffff">
	<g
   id="g166"
   style="fill:#ffffff">
		<path
   d="M472,332h-32c-4.424,0-8,3.576-8,8v32c0,4.424,3.576,8,8,8h32c4.424,0,8-3.576,8-8v-32C480,335.576,476.424,332,472,332z     M464,364h-16v-16h16V364z"
   id="path164"
   style="fill:#ffffff" />
	</g>
</g>
<g
   id="g174"
   style="fill:#ffffff">
	<g
   id="g172"
   style="fill:#ffffff">
		<path
   d="M288,412h-24c-4.424,0-8,3.576-8,8v24c0,4.424,3.576,8,8,8h24c4.424,0,8-3.576,8-8v-24C296,415.576,292.424,412,288,412z     M280,436h-8v-8h8V436z"
   id="path170"
   style="fill:#ffffff" />
	</g>
</g>
<g
   id="g176">
</g>
<g
   id="g178">
</g>
<g
   id="g180">
</g>
<g
   id="g182">
</g>
<g
   id="g184">
</g>
<g
   id="g186">
</g>
<g
   id="g188">
</g>
<g
   id="g190">
</g>
<g
   id="g192">
</g>
<g
   id="g194">
</g>
<g
   id="g196">
</g>
<g
   id="g198">
</g>
<g
   id="g200">
</g>
<g
   id="g202">
</g>
<g
   id="g204">
</g>
</svg>