<svg height="496pt" viewBox="0 0 496 496" width="496pt" xmlns="http://www.w3.org/2000/svg"><path d="m232 176v16h-24v112h24v16h16v-16h8c17.648438 0 32-14.351562 32-32 0-9.542969-4.199219-18.136719-10.855469-24 6.65625-5.863281 10.855469-14.457031 10.855469-24 0-17.648438-14.351562-32-32-32h-8v-16zm24 112h-32v-32h32c8.824219 0 16 7.175781 16 16s-7.175781 16-16 16zm16-64c0 8.824219-7.175781 16-16 16h-32v-32h32c8.824219 0 16 7.175781 16 16zm0 0"/><path d="m480 224h16v16h-16zm0 0"/><path d="m344 224h120v16h-120zm0 0"/><path d="m480 256h16v16h-16zm0 0"/><path d="m344 256h120v16h-120zm0 0"/><path d="m480 144h16v16h-16zm0 0"/><path d="m480 336h16v16h-16zm0 0"/><path d="m386.121094 184.960938c-24.511719-53.695313-78.425782-88.960938-138.121094-88.960938s-113.609375 35.265625-138.121094 88.960938l-34.136718-40.960938h-43.742188v16h36.257812l40 48h43.71875l2.167969-4.558594c17.183594-36.105468 54.023438-59.441406 93.855469-59.441406 25 0 49.152344 9.039062 68.015625 25.457031l10.496094-12.074219c-21.769531-18.949218-49.65625-29.382812-78.511719-29.382812-44.273438 0-85.335938 24.960938-106.007812 64h-17.753907c21.839844-48.28125 70.210938-80 123.761719-80s101.921875 31.71875 123.761719 80h-17.753907c-4.238281-8-9.40625-15.535156-15.398437-22.472656l-12.105469 10.464844c6.183594 7.160156 11.351563 15.046874 15.351563 23.449218l2.167969 4.558594h43.71875l40-48h36.257812v-16h-43.742188zm0 0"/><path d="m0 256h16v16h-16zm0 0"/><path d="m32 256h120v16h-120zm0 0"/><path d="m0 224h16v16h-16zm0 0"/><path d="m32 224h120v16h-120zm0 0"/><path d="m0 336h16v16h-16zm0 0"/><path d="m0 144h16v16h-16zm0 0"/><path d="m387.742188 288h-43.71875l-2.167969 4.558594c-17.183594 36.105468-54.023438 59.441406-93.855469 59.441406-25 0-49.152344-9.039062-68.015625-25.457031l-10.496094 12.074219c21.769531 18.949218 49.65625 29.382812 78.511719 29.382812 44.273438 0 85.335938-24.960938 106.007812-64h17.753907c-21.839844 48.28125-70.203125 80-123.761719 80-53.550781 0-101.921875-31.71875-123.761719-80h17.753907c4.238281 8 9.40625 15.535156 15.398437 22.472656l12.105469-10.464844c-6.183594-7.160156-11.351563-15.046874-15.351563-23.449218l-2.167969-4.558594h-43.71875l-40 48h-36.257812v16h43.742188l34.136718-40.960938c24.511719 53.695313 78.425782 88.960938 138.121094 88.960938s113.609375-35.265625 138.121094-88.960938l34.136718 40.960938h43.742188v-16h-36.257812zm0 0"/><path d="m304 0h16v16h-16zm0 0"/><path d="m304 32h16v16h-16zm0 0"/><path d="m320 16h16v16h-16zm0 0"/><path d="m288 16h16v16h-16zm0 0"/><path d="m384 64h16v16h-16zm0 0"/><path d="m384 96h16v16h-16zm0 0"/><path d="m400 80h16v16h-16zm0 0"/><path d="m368 80h16v16h-16zm0 0"/><path d="m144 40h16v16h-16zm0 0"/><path d="m144 72h16v16h-16zm0 0"/><path d="m160 56h16v16h-16zm0 0"/><path d="m128 56h16v16h-16zm0 0"/><path d="m344 408h16v16h-16zm0 0"/><path d="m344 440h16v16h-16zm0 0"/><path d="m360 424h16v16h-16zm0 0"/><path d="m328 424h16v16h-16zm0 0"/><path d="m208 448h16v16h-16zm0 0"/><path d="m208 480h16v16h-16zm0 0"/><path d="m224 464h16v16h-16zm0 0"/><path d="m192 464h16v16h-16zm0 0"/><path d="m112 384h16v16h-16zm0 0"/><path d="m112 416h16v16h-16zm0 0"/><path d="m128 400h16v16h-16zm0 0"/><path d="m96 400h16v16h-16zm0 0"/></svg>