<?xml version="1.0" encoding="UTF-8" standalone="no"?>
<svg
   xmlns:dc="http://purl.org/dc/elements/1.1/"
   xmlns:cc="http://creativecommons.org/ns#"
   xmlns:rdf="http://www.w3.org/1999/02/22-rdf-syntax-ns#"
   xmlns:svg="http://www.w3.org/2000/svg"
   xmlns="http://www.w3.org/2000/svg"
   xmlns:sodipodi="http://sodipodi.sourceforge.net/DTD/sodipodi-0.dtd"
   xmlns:inkscape="http://www.inkscape.org/namespaces/inkscape"
   height="512pt"
   viewBox="0 -69 512 512"
   width="512pt"
   version="1.1"
   id="svg8"
   sodipodi:docname="vr.svg"
   inkscape:version="0.92.3 (2405546, 2018-03-11)">
  <metadata
     id="metadata14">
    <rdf:RDF>
      <cc:Work
         rdf:about="">
        <dc:format>image/svg+xml</dc:format>
        <dc:type
           rdf:resource="http://purl.org/dc/dcmitype/StillImage" />
      </cc:Work>
    </rdf:RDF>
  </metadata>
  <defs
     id="defs12" />
  <sodipodi:namedview
     pagecolor="#ffffff"
     bordercolor="#666666"
     borderopacity="1"
     objecttolerance="10"
     gridtolerance="10"
     guidetolerance="10"
     inkscape:pageopacity="0"
     inkscape:pageshadow="2"
     inkscape:window-width="730"
     inkscape:window-height="480"
     id="namedview10"
     showgrid="false"
     inkscape:zoom="0.34570313"
     inkscape:cx="341.33333"
     inkscape:cy="341.33333"
     inkscape:window-x="0"
     inkscape:window-y="0"
     inkscape:window-maximized="0"
     inkscape:current-layer="svg8" />
  <path
     d="m7.5 220.050781c4.140625 0 7.5-3.355469 7.5-7.496093v-107.027344c3.015625 2.878906 6.484375 5.691406 10.382812 8.421875.167969.117187.332032.234375.496094.351562.300782.207031.609375.414063.914063.621094.460937.3125.921875.621094 1.382812.925781.132813.089844.261719.175782.398438.261719 2.847656 1.863281 5.714843 3.5625 8.492187 5.089844.171875.09375.359375.1875.535156.285156 1.105469.601563 2.234376 1.199219 3.386719 1.792969.230469.121094.464844.238281.699219.355468 3.183594 1.625 6.539062 3.214844 10.074219 4.761719 30.972656 13.558594 73.386719 23.5625 122.65625 28.941407 4.128906.453124 7.816406-2.523438 8.269531-6.640626.449219-4.117187-2.523438-7.820312-6.644531-8.269531-14.03125-1.53125-27.605469-3.484375-40.53125-5.808593v-129.117188c0-2.234375-.996094-4.355469-2.71875-5.78125-1.722657-1.421875-3.988281-2.003906-6.1875-1.585938-36.839844 7.046876-67.800781 17.09375-89.542969 29.046876-30.632812 16.84375-37.0625 34.316406-37.0625 46.007812v137.367188c0 4.140624 3.355469 7.496093 7.5 7.496093zm36.792969-177.730469c18.640625-10.25 44.859375-19.066406 76.21875-25.667968v117.042968c-16.378907-3.453124-31.46875-7.523437-44.789063-12.097656-.21875-.078125-.4375-.152344-.65625-.226562-1.214844-.421875-2.410156-.847656-3.59375-1.277344-.839844-.304688-1.679687-.609375-2.503906-.917969-.503906-.1875-1-.378906-1.496094-.570312-1.015625-.386719-2.023437-.777344-3.011718-1.171875-.242188-.097656-.488282-.191406-.730469-.289063-1.3125-.527343-2.601563-1.058593-3.867188-1.597656-.175781-.074219-.351562-.148437-.523437-.222656-2.628906-1.125-5.164063-2.273438-7.59375-3.441407-.074219-.035156-.148438-.070312-.226563-.109374-2.519531-1.214844-4.933593-2.453126-7.226562-3.714844-4.46875-2.457032-8.277344-4.863282-11.527344-7.207032-.082031-.058593-.164063-.113281-.242187-.171874-.394532-.285157-.769532-.566407-1.144532-.847657-.195312-.148437-.390625-.292969-.578125-.4375-.273437-.210937-.539062-.421875-.804687-.628906-.277344-.21875-.554688-.4375-.824219-.65625-.1875-.152344-.371094-.304687-.554687-.457031-.332032-.273438-.65625-.546875-.976563-.824219-.128906-.109375-.253906-.21875-.378906-.328125-.367188-.320312-.722657-.640625-1.074219-.960938-.078125-.074218-.160156-.144531-.238281-.21875-.390625-.363281-.773438-.726562-1.144531-1.089843-.039063-.035157-.074219-.074219-.113282-.109375-1.253906-1.238282-2.394531-2.480469-3.410156-3.726563-.03125-.039062-.0625-.074219-.09375-.113281-.28125-.347656-.550781-.695312-.8125-1.042969-.089844-.117187-.175781-.234375-.261719-.355469-.195312-.261718-.382812-.527343-.566406-.792968-.105469-.148438-.210937-.300782-.3125-.449219-.152344-.230469-.300781-.464844-.449219-.695313-.101562-.164062-.210937-.332031-.3125-.492187-.171875-.28125-.332031-.5625-.488281-.84375-.160156-.285156-.3125-.566406-.457031-.84375-.070313-.136719-.140625-.273437-.210938-.410156-.117187-.238281-.230468-.472657-.335937-.703125-.054688-.117188-.105469-.234375-.15625-.347656-.347657-.789063-.636719-1.554688-.875-2.296876-.039063-.128906-.082031-.257812-.121094-.382812-.0625-.214844-.125-.429688-.183594-.640625-.054687-.214844-.105469-.429687-.152343-.640625-.058594-.238281-.109376-.476562-.152344-.714844-.042969-.222656-.082032-.445312-.117188-.667968-.019531-.132813-.042968-.265626-.058594-.398438-.046874-.339844-.082031-.675781-.109374-1.015625-.007813-.085937-.007813-.167969-.015626-.25-.023437-.371094-.039062-.738281-.039062-1.105469 0-7.648437 5.078125-19.554687 29.292969-32.871094zm0 0"
     id="path2"
     style="fill:#ffffff" />
  <path
     d="m474.933594 29.179688c-21.738282-11.953126-52.699219-22-89.539063-29.046876-2.199219-.421874-4.464843.164063-6.1875 1.585938-1.722656 1.425781-2.71875 3.546875-2.71875 5.78125v129.167969c-36.320312 6.511719-77.539062 9.976562-120.488281 9.976562-16.699219 0-33.386719-.535156-49.597656-1.585937-4.144532-.265625-7.699219 2.863281-7.96875 6.996094-.269532 4.132812 2.863281 7.699218 6.996094 7.96875 16.53125 1.074218 33.546874 1.621093 50.566406 1.621093 67.128906 0 130.339844-8.339843 177.988281-23.476562 28.890625-9.179688 50.074219-20.140625 63.015625-32.460938v182.15625c0 15.8125-21.753906 32.621094-58.6875 45.699219l-36.277344-39.90625c-2.785156-3.066406-7.527344-3.289062-10.59375-.503906-3.0625 2.785156-3.289062 7.527344-.503906 10.59375l31.703125 34.875c-45.378906 13.367187-104.179687 20.699218-166.640625 20.699218-60.441406 0-117.449219-6.863281-162.191406-19.417968l73.28125-81.398438c2.097656-2.332031 4.980468-3.617187 8.117187-3.617187s6.019531 1.285156 8.117188 3.617187l44.847656 49.8125c.003906.007813.011719.011719.015625.019532l28.558594 31.71875c2.769531 3.078124 7.511718 3.328124 10.589844.558593 3.078124-2.773437 3.328124-7.515625.554687-10.59375l-24.058594-26.722656 63.382813-70.398437c2.496094-2.777344 5.925781-4.304688 9.660156-4.304688 3.730469 0 7.164062 1.53125 9.683594 4.332031l44.191406 48.613281c2.785156 3.0625 7.53125 3.289063 10.59375.503907 3.0625-2.785157 3.289062-7.53125.503906-10.59375l-44.167968-48.585938c-5.300782-5.890625-12.882813-9.265625-20.804688-9.265625s-15.507812 3.375-20.808594 9.265625l-62.324218 69.226563-39.269532-43.621094c-4.90625-5.453125-11.929687-8.578125-19.265625-8.578125-7.332031 0-14.355469 3.125-19.261719 8.578125l-77.953124 86.585938c-39.542969-13.28125-62.992188-30.773438-62.992188-47.191407v-45.3125c0-4.140625-3.359375-7.5-7.5-7.5-4.144531 0-7.5 3.359375-7.5 7.5v45.3125c0 24.984375 26.976562 46.761719 78.011719 62.976563 47.652343 15.136718 110.863281 23.476562 177.988281 23.476562s130.335938-8.339844 177.988281-23.476562c51.035157-16.214844 78.011719-37.996094 78.011719-62.976563v-212.675781c0-21.179688-20.15625-36.710938-37.066406-46.007812zm21.996094 47.582031c-.003907.027343-.007813.058593-.011719.085937-.046875.515625-.117188 1.03125-.210938 1.546875v.007813c-2.617187 14.328125-22.480469 29.207031-54.804687 41.1875-.59375.21875-1.183594.441406-1.785156.65625-.640626.230468-1.289063.464844-1.9375.691406-.988282.351562-1.984376.695312-2.988282 1.039062-.382812.128907-.765625.261719-1.148437.390626-12.726563 4.265624-27.007813 8.085937-42.554688 11.355468v-117.070312c31.359375 6.601562 57.582031 15.417968 76.222657 25.667968 24.210937 13.316407 29.292968 25.222657 29.292968 32.867188-.003906.523438-.027344 1.046875-.074218 1.574219zm0 0"
     id="path4"
     style="fill:#ffffff" />
  <path
     d="m263.496094 212.554688c0-16.40625-13.347656-29.753907-29.753906-29.753907s-29.75 13.347657-29.75 29.753907c0 16.402343 13.34375 29.75 29.75 29.75s29.753906-13.34375 29.753906-29.75zm-44.507813 0c0-8.136719 6.621094-14.753907 14.753907-14.753907 8.136718 0 14.757812 6.617188 14.757812 14.753907 0 8.132812-6.621094 14.753906-14.757812 14.753906-8.132813 0-14.753907-6.617188-14.753907-14.753906zm0 0"
     id="path6"
     style="fill:#ffffff" />
</svg>
